<?xml version="1.0" encoding="UTF-8"?><svg id="Layer_1" xmlns="http://www.w3.org/2000/svg" viewBox="0 0 724.24 225.39"><defs><style>.cls-1{font-family:Lato-Bold, Lato;font-size:26.43px;font-weight:700;}.cls-1,.cls-2{fill:#231f20;}.cls-3{fill:#fff;}</style></defs><g><path class="cls-2" d="M216.96,2.65H36.86c-11.01,0-19.94,8.93-19.94,19.94V202.69c0,11.01,8.93,19.94,19.94,19.94H216.96c11.01,0,19.94-8.93,19.94-19.94V22.6c0-11.01-8.93-19.94-19.94-19.94"/><path class="cls-3" d="M84.04,67.79c8.04,0,14.78-6.31,14.78-14.57s-6.73-14.56-14.78-14.56-14.78,6.3-14.78,14.56,6.74,14.57,14.78,14.57"/><path class="cls-3" d="M53.39,145.79c-.87,3.7-1.3,7.69-1.3,10.94,0,12.83,6.96,21.34,21.74,21.34,8.35,0,15.62-3.37,21.67-9.24,2-1.93,5.27-.07,4.6,2.62l-.43,1.71c-.43,1.74,.88,3.42,2.67,3.42h18.68c1.26,0,2.36-.86,2.66-2.08l13.39-53.72c3.48-14.13,10.22-21.46,20.43-21.46,8.04,0,13.04,5,13.04,13.26,0,2.39-.22,5-1.09,7.82l-7.17,25.65c-1.09,3.7-1.52,7.39-1.52,10.87,0,12.18,7.17,21.09,22.17,21.09,12.28,0,29.85-19.45,36.27-38.47,.48-1.39-.24-2.92-1.62-3.45-1.33-.51-2.86,.07-3.46,1.38-5.79,12.46-21.17,24.46-24.24,24.46-3.26,0-5-2.17-5-6.52,0-1.96,.43-4.13,1.09-6.74l6.95-24.99c1.74-5.87,2.39-11.07,2.39-15.85,0-18.7-11.3-28.45-25-28.45-8.92,0-17.95,5.6-24.81,13.11-1.9,2.08-5.32,.31-4.71-2.44l1.19-5.44c.38-1.72-.93-3.34-2.69-3.34h-31.65c-1.25,0-2.33,.83-2.66,2.03l-3.73,13.75c-.47,1.75,.85,3.46,2.66,3.46h10.27c1.79,0,3.1,1.68,2.67,3.42l-9.79,39.2c-.05,.17-.1,.34-.18,.5-8.44,18.45-23.76,18.75-25.69,18.32-3.18-.72-5.22-1.93-5.22-6.06,0-2.39,.43-5.81,1.52-9.95l15.44-61.25c.44-1.74-.87-3.43-2.67-3.43H54.63c-1.24,0-2.33,.83-2.65,2.03l-3.73,13.75c-.47,1.75,.85,3.46,2.66,3.46h10.07c1.78,0,3.1,1.67,2.67,3.4l-10.25,41.89Z"/></g><g><path class="cls-2" d="M317.36,154.41c4.67,0,8.74-.42,12.2-1.27,3.46-.85,6.76-2.01,9.89-3.5v-20.25h-13.94c-1.34,0-2.39-.37-3.16-1.12-.77-.74-1.16-1.66-1.16-2.73v-11.7h37.04v45.05c-2.82,2.05-5.76,3.84-8.82,5.35-3.05,1.52-6.31,2.76-9.78,3.73-3.46,.98-7.17,1.71-11.13,2.19-3.95,.49-8.21,.73-12.78,.73-8.11,0-15.58-1.41-22.41-4.23-6.83-2.82-12.73-6.75-17.71-11.78-4.98-5.03-8.87-11.04-11.67-18.02-2.8-6.98-4.2-14.6-4.2-22.87s1.36-16.04,4.08-23.02c2.72-6.98,6.58-12.99,11.59-18.02,5-5.03,11.08-8.93,18.21-11.7,7.13-2.77,15.14-4.16,24.02-4.16s16.95,1.35,23.6,4.04c6.65,2.7,12.28,6.2,16.9,10.51l-6.01,9.39c-1.18,1.9-2.75,2.85-4.7,2.85-1.23,0-2.49-.41-3.77-1.23-1.64-.97-3.32-1.95-5.04-2.93-1.72-.97-3.62-1.82-5.7-2.54-2.08-.72-4.42-1.31-7.01-1.77-2.59-.46-5.58-.69-8.97-.69-5.49,0-10.46,.92-14.9,2.77-4.44,1.85-8.23,4.49-11.36,7.93-3.13,3.44-5.54,7.57-7.24,12.4-1.69,4.83-2.54,10.22-2.54,16.17,0,6.42,.9,12.13,2.69,17.13s4.31,9.23,7.55,12.67c3.23,3.44,7.08,6.07,11.55,7.89,4.47,1.82,9.34,2.73,14.63,2.73Z"/><path class="cls-2" d="M376.5,169.66V90.65h11.17c1.95,0,3.31,.36,4.08,1.08,.77,.72,1.28,1.95,1.54,3.7l1.16,9.55c2.82-4.88,6.13-8.73,9.93-11.55,3.8-2.82,8.06-4.23,12.78-4.23,3.9,0,7.13,.9,9.7,2.69l-2.46,14.25c-.15,.92-.49,1.58-1,1.96-.51,.39-1.21,.58-2.08,.58-.77,0-1.82-.18-3.16-.54-1.34-.36-3.11-.54-5.31-.54-3.95,0-7.34,1.09-10.16,3.27-2.82,2.18-5.21,5.38-7.16,9.59v49.2h-19.02Z"/><path class="cls-2" d="M473.13,89.42c5.9,0,11.25,.95,16.05,2.85,4.8,1.9,8.89,4.59,12.28,8.08,3.39,3.49,6.01,7.75,7.85,12.78,1.85,5.03,2.77,10.65,2.77,16.86s-.92,11.91-2.77,16.94c-1.85,5.03-4.47,9.32-7.85,12.86-3.39,3.54-7.48,6.26-12.28,8.16-4.8,1.9-10.15,2.85-16.05,2.85s-11.27-.95-16.09-2.85c-4.83-1.9-8.95-4.62-12.36-8.16-3.41-3.54-6.06-7.83-7.93-12.86-1.88-5.03-2.81-10.68-2.81-16.94s.94-11.83,2.81-16.86c1.87-5.03,4.52-9.29,7.93-12.78,3.41-3.49,7.53-6.19,12.36-8.08,4.82-1.9,10.19-2.85,16.09-2.85Zm0,66.76c6.57,0,11.43-2.21,14.59-6.62,3.16-4.41,4.74-10.88,4.74-19.4s-1.58-15.02-4.74-19.48c-3.16-4.47-8.02-6.7-14.59-6.7s-11.6,2.25-14.78,6.74c-3.18,4.49-4.77,10.97-4.77,19.44s1.59,14.93,4.77,19.37c3.18,4.44,8.11,6.66,14.78,6.66Z"/><path class="cls-2" d="M544.35,90.65v50.2c0,4.83,1.12,8.56,3.35,11.2,2.23,2.64,5.58,3.97,10.05,3.97,3.28,0,6.36-.73,9.24-2.19,2.87-1.46,5.59-3.48,8.16-6.04v-57.13h19.02v79h-11.63c-2.46,0-4.08-1.15-4.85-3.46l-1.31-6.31c-1.64,1.64-3.34,3.15-5.08,4.5-1.75,1.36-3.61,2.52-5.58,3.46-1.98,.95-4.11,1.69-6.39,2.23-2.29,.54-4.74,.81-7.35,.81-4.31,0-8.12-.73-11.43-2.19-3.31-1.46-6.1-3.53-8.35-6.2-2.26-2.67-3.97-5.84-5.12-9.51-1.16-3.67-1.73-7.71-1.73-12.13v-50.2h19.02Z"/><path class="cls-2" d="M614.5,195.45V90.65h11.63c1.23,0,2.28,.28,3.16,.85,.87,.57,1.44,1.44,1.69,2.62l1.54,7.31c3.18-3.64,6.84-6.6,10.97-8.85,4.13-2.26,8.97-3.39,14.51-3.39,4.31,0,8.25,.9,11.82,2.69,3.57,1.8,6.65,4.4,9.24,7.82,2.59,3.41,4.59,7.62,6.01,12.63,1.41,5.01,2.12,10.74,2.12,17.21,0,5.9-.8,11.37-2.39,16.4-1.59,5.03-3.86,9.39-6.81,13.09-2.95,3.7-6.52,6.58-10.7,8.66-4.18,2.08-8.87,3.12-14.05,3.12-4.47,0-8.25-.68-11.36-2.04-3.11-1.36-5.89-3.25-8.35-5.66v32.34h-19.02Zm36.96-91.25c-3.95,0-7.33,.83-10.13,2.5-2.8,1.67-5.4,4.02-7.82,7.05v35.42c2.16,2.67,4.5,4.53,7.05,5.58,2.54,1.05,5.27,1.58,8.2,1.58s5.48-.54,7.82-1.62,4.31-2.72,5.93-4.93c1.62-2.21,2.86-4.99,3.73-8.35,.87-3.36,1.31-7.33,1.31-11.9s-.37-8.53-1.12-11.74c-.75-3.21-1.81-5.81-3.2-7.82-1.39-2-3.07-3.47-5.04-4.39-1.98-.92-4.22-1.39-6.74-1.39Z"/></g><text class="cls-1" transform="translate(670.72 83.37)"><tspan x="0" y="0">SM</tspan></text></svg>