<?xml version="1.0" encoding="UTF-8"?><svg id="a" xmlns="http://www.w3.org/2000/svg" viewBox="0 0 1175.86 659.56"><defs><style>.b{fill:#f88d2a;}.c{fill:#0075a9;}.d{fill:#fff;}</style></defs><g><path class="b" d="M450.8,219.79h-180.1c-11.01,0-19.94,8.93-19.94,19.94v180.1c0,11.01,8.93,19.94,19.94,19.94h180.1c11.01,0,19.94-8.93,19.94-19.94V239.73c0-11.01-8.93-19.94-19.94-19.94"/><path class="d" d="M317.89,284.92c8.04,0,14.78-6.31,14.78-14.57s-6.73-14.56-14.78-14.56-14.78,6.3-14.78,14.56,6.74,14.57,14.78,14.57"/><path class="d" d="M287.24,362.92c-.87,3.7-1.3,7.69-1.3,10.94,0,12.83,6.96,21.34,21.74,21.34,8.35,0,15.62-3.37,21.67-9.24,2-1.93,5.27-.07,4.6,2.62l-.43,1.71c-.43,1.74,.88,3.42,2.67,3.42h18.68c1.26,0,2.36-.86,2.66-2.08l13.39-53.72c3.48-14.13,10.22-21.46,20.43-21.46,8.04,0,13.04,5,13.04,13.26,0,2.39-.22,5-1.09,7.82l-7.17,25.65c-1.09,3.7-1.52,7.39-1.52,10.87,0,12.18,7.17,21.09,22.17,21.09,12.28,0,29.85-19.45,36.27-38.47,.48-1.39-.24-2.92-1.62-3.45-1.33-.51-2.86,.07-3.46,1.38-5.79,12.46-21.17,24.46-24.24,24.46-3.26,0-5-2.17-5-6.52,0-1.96,.43-4.13,1.09-6.74l6.95-24.99c1.74-5.87,2.39-11.07,2.39-15.85,0-18.7-11.3-28.45-25-28.45-8.92,0-17.95,5.6-24.81,13.11-1.9,2.08-5.32,.31-4.71-2.44l1.19-5.44c.38-1.72-.93-3.34-2.69-3.34h-31.65c-1.25,0-2.33,.83-2.66,2.03l-3.73,13.75c-.47,1.75,.85,3.46,2.66,3.46h10.27c1.79,0,3.1,1.68,2.67,3.42l-9.79,39.2c-.05,.17-.1,.34-.18,.5-8.44,18.45-23.76,18.75-25.69,18.32-3.18-.72-5.22-1.93-5.22-6.06,0-2.39,.43-5.81,1.52-9.95l15.44-61.25c.44-1.74-.87-3.43-2.67-3.43h-35.67c-1.24,0-2.33,.83-2.65,2.03l-3.73,13.75c-.47,1.75,.85,3.46,2.66,3.46h10.07c1.78,0,3.1,1.67,2.67,3.4l-10.25,41.89Z"/></g><g><g><path class="c" d="M678.55,390.68h-10.23c-2.15,0-3.84-.32-5.07-.97-1.23-.64-2.15-1.95-2.77-3.92l-2.03-6.73c-2.4,2.15-4.75,4.04-7.05,5.67-2.3,1.63-4.69,2.99-7.14,4.1-2.46,1.1-5.07,1.93-7.83,2.49-2.77,.55-5.84,.83-9.22,.83-4,0-7.68-.54-11.06-1.62-3.38-1.08-6.28-2.7-8.71-4.85-2.43-2.16-4.32-4.84-5.67-8.05-1.35-3.21-2.03-6.94-2.03-11.19,0-3.57,.94-7.11,2.81-10.59,1.87-3.48,4.99-6.63,9.35-9.43,4.36-2.81,10.17-5.13,17.42-6.98,7.25-1.85,16.25-2.77,27-2.77v-5.57c0-6.38-1.34-11.1-4.01-14.16-2.67-3.06-6.56-4.6-11.66-4.6-3.69,0-6.76,.43-9.22,1.29-2.46,.86-4.59,1.83-6.41,2.9-1.81,1.08-3.49,2.04-5.02,2.9-1.54,.86-3.23,1.29-5.07,1.29-1.54,0-2.86-.4-3.96-1.2-1.11-.8-2-1.78-2.67-2.95l-4.15-7.28c10.88-9.95,23.99-14.93,39.36-14.93,5.53,0,10.46,.91,14.79,2.72,4.33,1.81,8,4.33,11.01,7.56,3.01,3.23,5.3,7.08,6.87,11.57,1.57,4.49,2.35,9.4,2.35,14.75v59.72Zm-44.24-14.19c2.33,0,4.48-.21,6.45-.63,1.97-.42,3.82-1.06,5.57-1.9,1.75-.85,3.44-1.89,5.07-3.13,1.63-1.24,3.27-2.71,4.93-4.4v-15.83c-6.64,0-12.18,.42-16.64,1.25-4.46,.84-8.03,1.9-10.74,3.2-2.7,1.3-4.62,2.82-5.76,4.55-1.14,1.73-1.7,3.62-1.7,5.66,0,4.02,1.18,6.9,3.55,8.63,2.36,1.73,5.45,2.6,9.26,2.6Z"/><path class="c" d="M731.17,416.67c-.68,1.6-1.55,2.81-2.63,3.64-1.08,.83-2.72,1.24-4.93,1.24h-16.96l17.7-37.88-38.25-87.56h19.91c1.84,0,3.26,.43,4.24,1.29,.98,.86,1.72,1.84,2.21,2.95l20.19,49.03c.68,1.6,1.26,3.26,1.75,4.98,.49,1.72,.92,3.44,1.29,5.16,.49-1.78,1.03-3.5,1.61-5.16,.58-1.66,1.21-3.35,1.89-5.07l18.99-48.94c.49-1.23,1.31-2.24,2.44-3.04,1.14-.8,2.41-1.2,3.82-1.2h18.25l-51.52,120.55Z"/></g><path class="c" d="M523.08,344.07v47.85h-25.29V255.99h44.27c9.08,0,16.95,1.07,23.59,3.2,6.64,2.13,12.13,5.11,16.45,8.93,4.32,3.82,7.52,8.4,9.59,13.72,2.07,5.33,3.1,11.16,3.1,17.48s-1.1,12.61-3.29,18.1c-2.19,5.48-5.48,10.2-9.87,14.15-4.39,3.95-9.87,7.02-16.45,9.21-6.58,2.19-14.29,3.29-23.12,3.29h-18.99Zm0-19.74h18.99c4.64,0,8.68-.58,12.13-1.74,3.45-1.16,6.3-2.82,8.55-4.98,2.26-2.16,3.95-4.79,5.08-7.9s1.69-6.56,1.69-10.39-.56-6.92-1.69-9.87c-1.13-2.94-2.82-5.45-5.08-7.52s-5.11-3.65-8.55-4.75c-3.45-1.1-7.49-1.65-12.13-1.65h-18.99v48.79Z"/></g></svg>